<svg width="24" height="24" viewBox="0 0 24 24" fill="none" xmlns="http://www.w3.org/2000/svg">
<g clip-path="url(#clip0_616_3087)">
<path d="M16.8251 9.95728C17.5611 7.95795 18.1351 6.30728 18.5471 5.00528C18.8091 4.31928 19.0241 3.51128 19.1561 2.67628L19.1651 2.60628L19.1671 2.53428C19.1671 2.28428 19.0891 2.05228 18.9561 1.86128L18.9591 1.86528C18.8955 1.78284 18.8139 1.71609 18.7204 1.67015C18.627 1.62421 18.5242 1.60031 18.4201 1.60028L18.3891 1.60128H18.3901C18.0828 1.60128 17.7698 1.85661 17.4511 2.36728C17.0491 3.07028 16.6911 3.88628 16.4211 4.74028L16.3961 4.83028L14.7491 9.59228L16.8251 9.95728ZM14.6341 14.3893C14.1628 14.3689 13.6934 14.3164 13.2291 14.2323L13.2911 14.2413C12.8613 14.1653 12.4395 14.0495 12.0311 13.8953L12.0801 13.9113C12.2555 14.2633 12.4118 14.6149 12.5491 14.9663C12.6621 15.2403 12.7771 15.5873 12.8721 15.9413L12.8871 16.0053C13.1501 15.6773 13.4221 15.3843 13.7141 15.1123L13.7191 15.1073C13.9921 14.8513 14.2911 14.6153 14.6081 14.4033L14.6331 14.3873L14.6341 14.3893ZM12.7731 9.39728L10.9941 4.25628C10.7074 3.34307 10.3354 2.45884 9.88312 1.61528L9.92312 1.69728C9.67045 1.29661 9.39579 1.09628 9.09912 1.09628H9.08112C8.97691 1.09629 8.87407 1.11996 8.78035 1.16552C8.68664 1.21108 8.60449 1.27733 8.54012 1.35928L8.53912 1.36028C8.386 1.56454 8.31018 1.81644 8.32512 2.07128V2.06828C8.41312 3.04028 8.61712 3.93628 8.92512 4.78128L8.90112 4.70728C9.28579 5.95928 9.86245 7.60161 10.6311 9.63428C10.6908 9.5201 10.7884 9.43028 10.9071 9.38028L10.9111 9.37928C11.0704 9.3227 11.2392 9.29757 11.4081 9.30528H11.4051C11.4711 9.30528 11.6031 9.31095 11.8011 9.32228C11.9991 9.33361 12.3231 9.36028 12.7731 9.40228V9.39728ZM11.1581 17.3553C11.2565 17.3525 11.353 17.3283 11.4411 17.2845C11.5292 17.2406 11.6066 17.1781 11.6681 17.1013L11.6691 17.1003C11.8132 16.9526 11.8954 16.7555 11.8991 16.5493C11.8124 16.0325 11.6549 15.5291 11.4311 15.0553L11.4461 15.0903C11.0961 14.2193 10.7181 13.4803 10.2821 12.7793L10.3181 12.8413C10.0582 12.3815 9.73126 11.9629 9.34812 11.5993L9.34612 11.5973C9.10679 11.3525 8.78651 11.2032 8.44512 11.1773H8.44012C8.13819 11.2155 7.86359 11.3715 7.67612 11.6113L7.67412 11.6143C7.43576 11.821 7.28579 12.1113 7.25512 12.4253V12.4303C7.31012 12.8753 7.45612 13.2773 7.67412 13.6293L7.66712 13.6163C8.01212 14.2553 8.37912 14.8053 8.78912 15.3183L8.77212 15.2963C9.168 15.8482 9.62341 16.3549 10.1301 16.8073L10.1391 16.8153C10.4051 17.0913 10.7551 17.2853 11.1481 17.3543L11.1591 17.3563L11.1581 17.3553ZM6.21512 16.9603C6.36845 17.1476 6.58179 17.4223 6.85512 17.7843C7.58045 18.7836 8.25045 19.2833 8.86512 19.2833H8.87212C9.07463 19.2835 9.27088 19.2131 9.42712 19.0843L9.42612 19.0853C9.49568 19.0401 9.55406 18.9798 9.59685 18.9087C9.63964 18.8377 9.66572 18.7579 9.67312 18.6753V18.6733C9.62452 18.375 9.51046 18.0912 9.33912 17.8423L9.34312 17.8493C9.04912 17.3543 8.75012 16.9293 8.42212 16.5283L8.43712 16.5473C8.10804 16.11 7.74311 15.7009 7.34612 15.3243L7.34212 15.3203C7.161 15.1206 6.91925 14.986 6.65412 14.9373L6.64612 14.9363C6.20112 14.9633 5.81612 15.2013 5.58612 15.5493L5.58312 15.5543C5.25638 15.9701 5.08456 16.4866 5.09712 17.0153V17.0133C5.11312 17.5623 5.23612 18.0773 5.44512 18.5463L5.43512 18.5203C5.70612 19.1593 6.03512 19.7093 6.42712 20.2083L6.41512 20.1933C7.0384 21.0333 7.8529 21.7128 8.79112 22.1753L8.82912 22.1923C9.79555 22.657 10.8548 22.8967 11.9271 22.8933L12.0221 22.8923H12.0171L12.1391 22.8933C13.1346 22.8944 14.1186 22.6813 15.0244 22.2686C15.9303 21.8559 16.7367 21.2531 17.3891 20.5013L17.3961 20.4933C18.8674 18.841 19.6438 16.6843 19.5631 14.4733V14.4873L19.5651 14.3013C19.5651 13.7453 19.5041 13.2043 19.3891 12.6833L19.3981 12.7333C19.3274 12.3665 19.1367 12.0337 18.8561 11.7873L18.8541 11.7853C18.0703 11.2758 17.1889 10.9352 16.2661 10.7853L16.2271 10.7803C14.9113 10.4806 13.5657 10.3313 12.2161 10.3353H12.1451H12.1491C11.8529 10.3083 11.5559 10.3785 11.3031 10.5353L11.3091 10.5323C11.2186 10.6189 11.1492 10.7252 11.1064 10.843C11.0635 10.9607 11.0484 11.0867 11.0621 11.2113V11.2073C11.0657 11.5751 11.1885 11.9319 11.4121 12.224C11.6357 12.5161 11.948 12.7278 12.3021 12.8273L12.3141 12.8303C13.3481 13.1593 14.5371 13.3483 15.7711 13.3483C15.9811 13.3483 16.1901 13.3433 16.3971 13.3323L16.3681 13.3333H17.0571C17.2011 13.3333 17.3301 13.4003 17.4131 13.5053L17.4141 13.5063C17.5181 13.6523 17.5861 13.8293 17.6031 14.0213V14.0253C17.2731 14.2773 16.8911 14.4813 16.4771 14.6183L16.4491 14.6263C15.9391 14.8113 15.4981 15.0363 15.0921 15.3083L15.1141 15.2943C14.4827 15.7507 13.9469 16.3266 13.5371 16.9893L13.5221 17.0143C13.1527 17.5737 12.9447 18.2243 12.9211 18.8943V18.9013C12.9381 19.3763 13.0301 19.8233 13.1861 20.2403L13.1761 20.2113C13.2851 20.4833 13.3741 20.8023 13.4281 21.1323L13.4321 21.1583V21.2733L13.3991 21.4213C13.1511 21.3963 12.9144 21.3053 12.7136 21.1577C12.5127 21.0102 12.3551 20.8114 12.2571 20.5823L12.2541 20.5733C11.9418 19.9038 11.798 19.1681 11.8351 18.4303V18.4403V18.2923C11.7617 18.3597 11.6775 18.4145 11.5861 18.4543L11.5801 18.4563C11.496 18.4893 11.4065 18.5063 11.3161 18.5063H11.3011C11.2041 18.5063 11.1101 18.4973 11.0181 18.4803L11.0271 18.4813C10.9199 18.4611 10.814 18.4344 10.7101 18.4013L10.7301 18.4073C10.7581 18.5033 10.7841 18.6233 10.8021 18.7453L10.8041 18.7613C10.8171 18.8413 10.8261 18.9353 10.8291 19.0303V19.0383C10.8291 19.4543 10.6441 19.8263 10.3511 20.0773L10.3491 20.0793C10.0591 20.3503 9.66812 20.5163 9.23912 20.5163H9.21112C8.40447 20.4645 7.65027 20.1021 7.10512 19.5053L7.10312 19.5033C6.79954 19.2644 6.54802 18.966 6.36402 18.6264C6.18001 18.2867 6.0674 17.913 6.03312 17.5283L6.03212 17.5173V17.5033C6.03212 17.3943 6.04712 17.2893 6.07612 17.1893L6.07412 17.1973C6.09952 17.1066 6.14772 17.024 6.21412 16.9573L6.21512 16.9603ZM18.0131 10.2373C18.4288 10.2858 18.8295 10.4216 19.189 10.6359C19.5484 10.8501 19.8586 11.1378 20.0991 11.4803L20.1051 11.4893C20.5846 12.4428 20.7948 13.5091 20.7131 14.5733L20.7141 14.5543C20.7643 15.7972 20.5691 17.0379 20.1397 18.2053C19.7102 19.3728 19.0548 20.4442 18.2111 21.3583L18.2171 21.3513C17.4007 22.2225 16.4075 22.9092 15.3041 23.3652C14.2006 23.8212 13.0124 24.036 11.8191 23.9953H11.8321H11.8251C10.7906 23.9963 9.76505 23.8026 8.80212 23.4243L8.85812 23.4433C7.93601 23.0989 7.09188 22.5739 6.37512 21.8993L6.37912 21.9023C5.65974 21.2646 5.06352 20.5003 4.62012 19.6473L4.60012 19.6043C4.21135 18.836 4.00824 17.9873 4.00712 17.1263C3.95679 16.3435 4.17439 15.5659 4.62412 14.9233L4.61712 14.9343C5.11045 14.3701 5.78665 13.9977 6.52712 13.8823L6.54512 13.8803C6.4118 13.5842 6.29658 13.2803 6.20012 12.9703L6.18312 12.9083C6.11716 12.7132 6.07813 12.51 6.06712 12.3043V12.2983C6.08932 12.0062 6.16977 11.7214 6.30373 11.4609C6.43769 11.2004 6.62245 10.9693 6.84712 10.7813L6.85012 10.7783C7.21212 10.3493 7.73012 10.0623 8.31612 10.0053L8.32512 10.0043C8.55012 10.0073 8.76512 10.0463 8.96512 10.1153L8.95112 10.1113C9.24212 10.2143 9.49312 10.3333 9.72712 10.4763L9.70912 10.4663C8.86312 8.07161 8.24779 6.22361 7.86312 4.92228C7.58412 4.13628 7.38012 3.22228 7.29012 2.27428L7.28612 2.22828C7.25335 1.63831 7.4428 1.05747 7.81712 0.600281L7.81412 0.604281C7.99368 0.403032 8.21606 0.244582 8.46491 0.140578C8.71376 0.036573 8.98276 -0.0103422 9.25212 0.00328067H9.24812C10.2801 0.00328067 11.5861 2.30995 13.1661 6.92328C13.4408 7.71461 13.6495 8.32428 13.7921 8.75228C13.9135 8.41228 14.0838 7.92895 14.3031 7.30228C15.8851 2.73228 17.2471 0.447281 18.3891 0.447281L18.4601 0.446281C18.9651 0.446281 19.4181 0.666281 19.7301 1.01428L19.7311 1.01628C20.0877 1.44414 20.2692 1.9911 20.2391 2.54728V2.54228C20.1491 3.52128 19.9541 4.42128 19.6631 5.27728L19.6871 5.19428C19.3185 6.47961 18.7611 8.15895 18.0151 10.2323L18.0131 10.2373Z" fill="#F7F4F3"/>
</g>
<defs>
<clipPath id="clip0_616_3087">
<rect width="24" height="24" fill="white"/>
</clipPath>
</defs>
</svg>
