<svg width="32" height="32" viewBox="0 0 32 32" fill="none" xmlns="http://www.w3.org/2000/svg">
<g clip-path="url(#clip0_831_239)">
<path d="M15.9736 0.00478098C15.9736 0.00478098 25.3886 -0.416075 30.3802 9.0106H15.1724C15.1724 9.0106 12.3024 8.91846 9.85081 12.3867C9.14656 13.8424 8.38956 15.3419 9.23906 18.2971C8.01531 16.2319 2.74219 7.08587 2.74219 7.08587C2.74219 7.08587 6.46169 0.37745 15.9736 0.00478098Z" fill="#EF3F36"/>
<path d="M29.8915 23.9351C29.8915 23.9351 25.547 32.2701 14.8599 31.8579C16.1804 29.5823 22.4659 18.7394 22.4659 18.7394C22.4659 18.7394 23.9845 16.3104 22.193 12.4608C21.2817 11.1235 20.353 9.72487 17.36 8.97941C19.7677 8.95762 30.3537 8.97941 30.3537 8.97941C30.3537 8.97941 34.3195 15.5431 29.8915 23.9351Z" fill="#FCD900"/>
<path d="M2.12159 24.0009C2.12159 24.0009 -2.95353 16.0868 2.75097 7.07227C4.06709 9.34788 10.3526 20.1908 10.3526 20.1908C10.3526 20.1908 11.7083 22.7163 15.9471 23.0932C17.5626 22.9749 19.244 22.874 21.3921 20.6687C20.2078 22.7558 14.895 31.8755 14.895 31.8755C14.895 31.8755 7.20109 32.0158 2.12159 24.0009Z" fill="#61BC5B"/>
<path d="M14.8555 31.9368L16.9946 23.045C16.9946 23.045 19.3451 22.8607 21.3171 20.708C20.0933 22.8521 14.8555 31.9368 14.8555 31.9368Z" fill="#5AB055"/>
<path d="M8.80762 16.0692C8.80762 12.1495 11.9989 8.9707 15.9339 8.9707C19.8689 8.9707 23.0601 12.1495 23.0601 16.0692C23.0601 19.989 19.8689 23.1677 15.9339 23.1677C11.9989 23.1634 8.80762 19.989 8.80762 16.0692Z" fill="white"/>
<path d="M10.0005 16.0695C10.0005 12.8075 12.6547 10.1592 15.934 10.1592C19.2087 10.1592 21.8674 12.8031 21.8674 16.0695C21.8674 19.3316 19.2132 21.9799 15.934 21.9799C12.6591 21.9799 10.0005 19.3316 10.0005 16.0695Z" fill="url(#paint0_linear_831_239)"/>
<path d="M30.3496 8.98438L21.5418 11.5581C21.5418 11.5581 20.2126 9.61567 17.356 8.98438C19.8341 8.97118 30.3496 8.98438 30.3496 8.98438Z" fill="#EACA05"/>
<path d="M9.06744 17.9717C7.83044 15.8364 2.74219 7.08496 2.74219 7.08496L9.26544 13.5126C9.26544 13.5126 8.59631 14.885 8.84731 16.8492L9.06744 17.9717Z" fill="#DF3A32"/>
</g>
<defs>
<linearGradient id="paint0_linear_831_239" x1="15.9337" y1="10.2426" x2="15.9337" y2="21.6241" gradientUnits="userSpaceOnUse">
<stop stop-color="#86BBE5"/>
<stop offset="1" stop-color="#1072BA"/>
</linearGradient>
<clipPath id="clip0_831_239">
<rect width="32" height="32" fill="white"/>
</clipPath>
</defs>
</svg>
