<svg width="32" height="32" viewBox="0 0 32 32" fill="none" xmlns="http://www.w3.org/2000/svg">
<path d="M5.90225 27.201L3.65625 2H28.3442L26.0952 27.197L15.9852 30L5.90225 27.201Z" fill="#1572B6"/>
<path d="M16 27.8585L24.17 25.5935L26.092 4.06152H16V27.8585Z" fill="#33A9DC"/>
<path d="M16 13.1906H20.09L20.372 10.0256H16V6.93457H23.75L23.676 7.76357L22.917 16.2816H16V13.1906Z" fill="white"/>
<path d="M16.0192 21.2181L16.0052 21.2221L12.5632 20.2921L12.3432 17.8271H9.24023L9.67323 22.6801L16.0042 24.4381L16.0192 24.4341V21.2181Z" fill="#EBEBEB"/>
<path d="M19.8268 16.1514L19.4548 20.2904L16.0078 21.2204V24.4364L22.3438 22.6804L22.3908 22.1584L22.9278 16.1514H19.8268Z" fill="white"/>
<path d="M16.0111 6.93457V10.0256H8.54507L8.48307 9.33057L8.34207 7.76357L8.26807 6.93457H16.0111ZM16.0001 13.1906V16.2816H12.6011L12.5391 15.5866L12.3991 14.0196L12.3251 13.1906H16.0001Z" fill="#EBEBEB"/>
</svg>
