<svg width="679" height="550" viewBox="0 0 679 550" fill="none" xmlns="http://www.w3.org/2000/svg">
<path d="M188.277 180.439L378.22 22.2773" stroke="#D7D7D7" stroke-opacity="0.5" stroke-width="1.86543"/>
<path d="M186.454 171.013L361.507 24.1261" stroke="#D7D7D7" stroke-opacity="0.5" stroke-width="1.86543"/>
<path d="M187.604 157.872L348.367 22.9762" stroke="#D7D7D7" stroke-opacity="0.5" stroke-width="1.86543"/>
<path d="M188.753 144.732L335.226 21.8273" stroke="#D7D7D7" stroke-opacity="0.5" stroke-width="1.86543"/>
<path d="M189.903 131.591L322.086 20.6765" stroke="#D7D7D7" stroke-opacity="0.5" stroke-width="1.86543"/>
<path d="M198.198 112.455L308.945 19.5268" stroke="#D7D7D7" stroke-opacity="0.5" stroke-width="1.86543"/>
<path d="M191.3 191.297L387.098 27.0029" stroke="#D7D7D7" stroke-opacity="0.5" stroke-width="1.86543"/>
<path d="M190.151 204.438L393.784 33.5704" stroke="#D7D7D7" stroke-opacity="0.5" stroke-width="1.86543"/>
<path d="M196.146 211.583L406.924 34.7195" stroke="#D7D7D7" stroke-opacity="0.5" stroke-width="1.86543"/>
<path d="M194.997 224.724L412.919 41.8648" stroke="#D7D7D7" stroke-opacity="0.5" stroke-width="1.86543"/>
<path d="M200.992 231.868L418.914 49.0093" stroke="#D7D7D7" stroke-opacity="0.5" stroke-width="1.86543"/>
<path d="M206.987 239.014L432.655 50.8747" stroke="#D7D7D7" stroke-opacity="0.5" stroke-width="1.86543"/>
<path d="M212.982 246.158L438.65 58.0192" stroke="#D7D7D7" stroke-opacity="0.5" stroke-width="1.86543"/>
<path d="M218.978 253.303L440.473 67.4462" stroke="#D7D7D7" stroke-opacity="0.5" stroke-width="1.86543"/>
<path d="M224.973 260.448L446.468 74.5917" stroke="#D7D7D7" stroke-opacity="0.5" stroke-width="1.86543"/>
<path d="M230.968 267.594L452.463 81.7377" stroke="#D7D7D7" stroke-opacity="0.5" stroke-width="1.86543"/>
<path d="M236.964 274.738L458.459 88.8818" stroke="#D7D7D7" stroke-opacity="0.5" stroke-width="1.86543"/>
<path d="M242.959 281.884L464.455 96.0273" stroke="#D7D7D7" stroke-opacity="0.5" stroke-width="1.86543"/>
<path d="M251.986 285.386L466.878 106.17" stroke="#D7D7D7" stroke-opacity="0.5" stroke-width="1.86543"/>
<path d="M257.922 292.461L476.445 110.317" stroke="#D7D7D7" stroke-opacity="0.5" stroke-width="1.86543"/>
<path d="M264.518 300.32L475.296 123.457" stroke="#D7D7D7" stroke-opacity="0.5" stroke-width="1.86543"/>
<path d="M277.058 300.755L477.718 133.6" stroke="#D7D7D7" stroke-opacity="0.5" stroke-width="1.86543"/>
<path d="M283.653 308.615L483.714 140.745" stroke="#D7D7D7" stroke-opacity="0.5" stroke-width="1.86543"/>
<path d="M296.794 309.766L482.565 153.886" stroke="#D7D7D7" stroke-opacity="0.5" stroke-width="1.86543"/>
<path d="M309.334 310.2L481.414 167.026" stroke="#D7D7D7" stroke-opacity="0.5" stroke-width="1.86543"/>
<path d="M323.075 312.064L487.41 174.171" stroke="#D7D7D7" stroke-opacity="0.5" stroke-width="1.86543"/>
<path d="M336.215 313.214L486.26 187.311" stroke="#D7D7D7" stroke-opacity="0.5" stroke-width="1.86543"/>
<path d="M349.355 314.363L477.966 206.447" stroke="#D7D7D7" stroke-opacity="0.5" stroke-width="1.86543"/>
<path d="M369.641 309.519L469.671 225.583" stroke="#D7D7D7" stroke-opacity="0.5" stroke-width="1.86543"/>
</svg>
