<svg width="24" height="24" viewBox="0 0 24 24" fill="#F7F4F3" xmlns="http://www.w3.org/2000/svg">
<g clip-path="url(#clip0_616_3091)">
<path d="M8.51651 21.1617C7.25331 21.3125 6.35354 21.1319 5.71233 20.7724C4.975 20.3589 4.65795 19.7528 4.51192 19.346C4.4578 19.2105 4.29788 18.8941 4.08786 18.5747C3.98295 18.4152 3.87218 18.2652 3.76402 18.143C3.65316 18.0178 3.56555 17.9454 3.50882 17.913C3.37697 17.8419 3.23357 17.747 3.10702 17.6404C2.99007 17.5419 2.83822 17.3928 2.75311 17.206C2.70803 17.1071 2.66524 16.9612 2.69489 16.7923C2.72692 16.6099 2.83127 16.4692 2.95835 16.3759C3.17241 16.2187 3.46383 16.184 3.72754 16.1801M8.51651 21.1617L23.5 12C23.4993 14.4096 22.743 16.7584 21.3375 18.7157C19.9389 20.6635 17.9676 22.126 15.6987 22.8998C15.6203 22.9127 15.5734 22.9076 15.5504 22.9025C15.5376 22.8997 15.5305 22.8966 15.5273 22.895C15.5242 22.8934 15.5227 22.8922 15.522 22.8915C15.5191 22.8889 15.5 22.865 15.5 22.815C15.5 22.6814 15.5017 22.4501 15.5039 22.1398C15.505 21.9849 15.5062 21.8103 15.5075 21.6183C15.5112 21.044 15.515 20.319 15.515 19.515C15.515 18.7647 15.3622 18.148 15.1144 17.6694C16.2232 17.4709 17.3515 17.0963 18.2651 16.33C19.4398 15.3447 20.18 13.7819 20.18 11.37C20.18 10.0363 19.7441 8.9275 19.0158 8.03565C19.1885 7.45126 19.3877 6.26299 18.7942 4.7793L18.7076 4.56273L18.486 4.48995L18.33 4.965C18.486 4.48995 18.4855 4.48979 18.485 4.48963L18.484 4.48931L18.4819 4.48864L18.4775 4.48724L18.4674 4.48421C18.4602 4.4821 18.4519 4.47981 18.4426 4.47742C18.424 4.47263 18.4012 4.46743 18.3742 4.46239C18.3202 4.45228 18.2497 4.44286 18.1623 4.43845C17.9872 4.42961 17.747 4.44105 17.4383 4.50558C16.8555 4.62741 16.0328 4.93751 14.9411 5.65319C14.0014 5.4106 13.0147 5.29 12.03 5.29C11.0449 5.29 10.0577 5.41071 9.11766 5.65352C8.02616 4.94451 7.20442 4.63506 6.62332 4.51155C6.31562 4.44615 6.07638 4.43313 5.90219 4.44035C5.81524 4.44395 5.74513 4.45257 5.69144 4.46197C5.66463 4.46667 5.64199 4.47154 5.62349 4.47605C5.61424 4.4783 5.60603 4.48046 5.59886 4.48246L5.58888 4.48532L5.58447 4.48665L5.58242 4.48728L5.58143 4.48758C5.58094 4.48774 5.58046 4.48789 5.73 4.965L5.58046 4.48789L5.35393 4.55889L5.26576 4.7793C4.67222 6.26315 4.8715 7.45152 5.04425 8.03584C4.31547 8.93018 3.88 10.0508 3.88 11.37C3.88 13.7741 4.6162 15.3362 5.78634 16.3234C6.69749 17.0921 7.82373 17.4697 8.93288 17.6693C8.80236 17.9215 8.69778 18.2127 8.62917 18.5421C8.32762 18.6508 7.92908 18.7435 7.51953 18.7059C7.02281 18.6602 6.46603 18.4212 6.00968 17.6543L6.00979 17.6543L6.004 17.645C5.8743 17.4375 5.61698 17.0803 5.24894 16.7714C4.88198 16.4634 4.36376 16.1701 3.72754 16.1801M8.51651 21.1617C8.51795 21.4542 8.52024 21.7301 8.52252 21.9722C8.52369 22.0958 8.52485 22.2101 8.52589 22.313C8.52823 22.5442 8.53 22.7186 8.53 22.815C8.53 22.8627 8.51243 22.8819 8.51098 22.8832C8.51013 22.884 8.50814 22.8856 8.50389 22.8877C8.49959 22.8899 8.49104 22.8936 8.4765 22.8969C8.45072 22.9027 8.40224 22.9081 8.32422 22.8976C3.77212 21.3621 0.5 17.0736 0.5 12C0.5 5.64614 5.64614 0.5 12 0.5C18.3538 0.5 23.4999 5.64606 23.5 11.9999L8.51651 21.1617ZM3.72754 16.1801L3.735 16.68M3.72754 16.1801C3.72738 16.1801 3.72722 16.1801 3.72706 16.1801L3.735 16.68M3.735 16.68C4.68 16.665 5.355 17.55 5.58 17.91L3.75 17.475C3.33 17.25 2.73 16.695 3.735 16.68Z" stroke="#F7F4F3"/>
</g>
<defs>
<clipPath id="clip0_616_3091">
<rect width="24" height="24" fill="white"/>
</clipPath>
</defs>
</svg>
