<svg width="32" height="32" viewBox="0 0 32 32" fill="none" xmlns="http://www.w3.org/2000/svg">
<path d="M5.90178 27.201L3.65479 2H28.3448L26.0948 27.197L15.9848 30L5.90178 27.201Z" fill="#E44F26"/>
<path d="M16 27.8585L24.17 25.5935L26.092 4.06152H16V27.8585Z" fill="#F1662A"/>
<path d="M16 13.4074H11.91L11.628 10.2424H16V7.15137H8.25L8.324 7.98137L9.083 16.4984H16V13.4074ZM16 21.4344L15.986 21.4384L12.544 20.5094L12.324 18.0444H9.221L9.654 22.8964L15.986 24.6544L16 24.6504V21.4344Z" fill="#EBEBEB"/>
<path d="M15.9888 13.4074V16.4984H19.7948L19.4368 20.5074L15.9888 21.4374V24.6534L22.3258 22.8964L22.3718 22.3744L23.0978 14.2374L23.1738 13.4074H15.9888ZM15.9888 7.15137V10.2424H23.4548L23.5168 9.54837L23.6578 7.98137L23.7318 7.15137H15.9888Z" fill="white"/>
</svg>
