<svg width="32" height="32" viewBox="0 0 32 32" fill="none" xmlns="http://www.w3.org/2000/svg">
<g clip-path="url(#clip0_831_274)">
<path d="M0 0H32V32H0V0Z" fill="#F7DF1E"/>
<path d="M8.41419 26.7419L10.8629 25.2599C11.3354 26.0975 11.7652 26.8063 12.7961 26.8063C13.7842 26.8063 14.4073 26.4198 14.4073 24.9163V14.6915H17.4144V24.9588C17.4144 28.0734 15.5887 29.4912 12.9249 29.4912C10.5193 29.4912 9.12294 28.2453 8.41406 26.7417M19.0478 26.4197L21.4963 25.002C22.1409 26.0547 22.9787 26.8279 24.4607 26.8279C25.7068 26.8279 26.5013 26.2049 26.5013 25.3457C26.5013 24.3147 25.6851 23.9494 24.3103 23.3482L23.5587 23.0257C21.3891 22.1023 19.9499 20.9423 19.9499 18.4935C19.9499 16.238 21.6683 14.5195 24.3534 14.5195C26.2652 14.5195 27.6399 15.1855 28.6279 16.9254L26.2864 18.4292C25.7708 17.5055 25.2126 17.1404 24.3533 17.1404C23.4726 17.1404 22.9141 17.6989 22.9141 18.4292C22.9141 19.3313 23.4726 19.6967 24.7613 20.2552L25.5131 20.5773C28.0693 21.6729 29.5084 22.7898 29.5084 25.3028C29.5084 28.0095 27.3819 29.4915 24.5251 29.4915C21.7327 29.4915 19.9283 28.1598 19.0477 26.4198" fill="black"/>
</g>
<defs>
<clipPath id="clip0_831_274">
<rect width="32" height="32" fill="white"/>
</clipPath>
</defs>
</svg>
