<svg width="24" height="24" viewBox="0 0 24 24" fill="#F7F4F3" xmlns="http://www.w3.org/2000/svg">
<g clip-path="url(#clip0_616_3078)">
<path d="M21.9993 14.2983V21.5H18.6515V15.175C18.6515 14.3835 18.6497 13.3543 18.3211 12.5246C18.151 12.0954 17.8851 11.6942 17.4687 11.4037C17.0513 11.1126 16.5254 10.9625 15.888 10.9625C15.2571 10.9625 14.7235 11.0859 14.283 11.3297C13.8396 11.5752 13.5204 11.9263 13.296 12.3331C12.8602 13.1231 12.7772 14.1345 12.7772 15.058V21.5H9.428V8.4795H12.6033V9.892V10.392H13.1033H13.164H13.4655L13.6062 10.1253C14.1051 9.17968 15.3592 8.12775 17.283 8.12775C19.3628 8.12775 20.4817 8.80174 21.1203 9.8161C21.7923 10.8835 21.9993 12.4247 21.9993 14.2983ZM5.701 21.5H2.34725V8.4795H5.701V21.5ZM4.0215 5.567C2.91178 5.567 2 4.64353 2 3.5215C2 2.98536 2.21298 2.47119 2.59208 2.09208C2.97119 1.71298 3.48536 1.5 4.0215 1.5C4.55764 1.5 5.07181 1.71298 5.45092 2.09208C5.83002 2.47119 6.043 2.98536 6.043 3.5215C6.043 4.64353 5.13122 5.567 4.0215 5.567Z" stroke="#F7F4F3"/>
</g>
<defs>
<clipPath id="clip0_616_3078">
<rect width="24" height="24" fill="white"/>
</clipPath>
</defs>
</svg>
