<svg width="24" height="24" viewBox="0 0 24 24" fill="none" xmlns="http://www.w3.org/2000/svg">
<path d="M12.9966 14.0898L16.8112 4.5H21.1131L20.0721 5.50449C19.945 5.60955 19.8466 5.74533 19.7864 5.89919C19.7282 6.04782 19.7076 6.20826 19.726 6.36631V17.6317C19.7076 17.7897 19.7282 17.9502 19.7864 18.0988C19.8462 18.2516 19.9436 18.3865 20.0694 18.4912L21.0899 19.5H14.9989L16.0845 18.4385L16.0846 18.4385L16.0897 18.4334C16.1777 18.3449 16.2921 18.2219 16.3504 18.0391C16.3953 17.8987 16.3945 17.749 16.3941 17.655C16.394 17.6462 16.394 17.6378 16.394 17.63V8.468L15.4283 8.286L11.087 19.3943L6.0211 8.26092L5.066 8.468V16.142C5.01619 16.5963 5.1672 17.0528 5.48079 17.387L7.17844 19.462H2.77837L4.47584 17.3862C4.6334 17.2171 4.75066 17.0144 4.81869 16.7933C4.88433 16.58 4.90245 16.355 4.872 16.1343V7.28601C4.88693 7.09585 4.85932 6.90462 4.79101 6.72627C4.72413 6.55163 4.61996 6.39386 4.48596 6.26387L3.03254 4.5H7.72744L12.0765 14.1111L12.5616 15.1833L12.9966 14.0898Z" stroke="#F7F4F3"/>
</svg>
