<svg width="32" height="32" viewBox="0 0 32 32" fill="none" xmlns="http://www.w3.org/2000/svg">
<g clip-path="url(#clip0_831_543)">
<path d="M13.6947 20.0424C13.6947 20.0424 15.1053 19.9134 15.1053 17.9703C15.1053 16.0272 13.3965 15.8467 13.3965 15.8467H10.3174V21.9769H11.865V20.4981L13.203 21.9769H15.4922L13.6947 20.0424ZM13.0983 18.7871H11.865V17.3857H13.1063C13.1063 17.3857 13.4529 17.5232 13.4529 18.0821C13.4529 18.6409 13.0983 18.7871 13.0983 18.7871ZM18.9259 15.8897H17.3541C16.2338 15.8897 15.8549 16.973 15.8549 17.4888V21.9769H17.4267V20.9022H18.9018V21.9769H20.4252V17.4889C20.4252 16.1819 19.3129 15.8897 18.9259 15.8897ZM18.9018 19.1654H17.4186V17.678C17.4186 17.678 17.4186 17.3427 17.9103 17.3427H18.4504C18.8856 17.3427 18.8937 17.678 18.8937 17.678V19.1654H18.9018ZM21.1426 15.8897H22.7788V21.9769H21.1426V15.8897ZM25.0761 20.4035V15.8897H23.4479V21.9768H27.2766V20.4035H25.0761ZM27.8166 20.4207V21.9769H30.4524C30.9924 21.9769 31.9194 21.5556 31.9516 20.3777V19.7759C31.9516 18.7699 31.1779 18.1767 30.4524 18.1767H29.1386V17.4545H31.7421V15.8897H29.2433C28.5985 15.8897 27.736 16.4571 27.736 17.5146V18.0563C27.736 19.1138 28.5904 19.6555 29.2433 19.6555C31.0569 19.6641 28.8081 19.6555 30.4846 19.6555V20.4121L27.8166 20.4207Z" fill="#CC0000"/>
<path d="M0.56425 21.9681H6.932C6.932 21.9681 5.71487 16.0443 9.74512 13.6455C10.6237 13.1898 13.4206 11.4875 17.999 15.0985C18.1441 14.9695 18.2811 14.8663 18.2811 14.8663C18.2811 14.8663 14.0897 10.4041 9.42269 10.9028C7.07706 11.1263 4.19144 13.4047 2.49875 16.414C0.806062 19.4232 0.56425 21.9681 0.56425 21.9681ZM13.8317 11.3843L13.864 10.8082C13.7914 10.7652 13.5899 10.662 13.0821 10.5073L13.0499 11.0747C13.3135 11.1689 13.5743 11.2722 13.8317 11.3843ZM13.066 13.2069L13.0337 13.7487C13.2997 13.7573 13.5658 13.7917 13.8317 13.8518L13.864 13.3187C13.5899 13.2586 13.3239 13.2241 13.066 13.2069ZM10.0836 10.5245H10.1643L10.003 10C9.75313 10 9.49519 10.0172 9.22925 10.0516L9.38237 10.5589C9.61613 10.5331 9.84987 10.5245 10.0836 10.5245ZM10.4705 13.6885L10.6559 14.2818C10.8897 14.1614 11.1234 14.0583 11.3572 13.9809L11.1799 13.4134C10.9381 13.4887 10.7012 13.5806 10.4705 13.6885ZM6.81112 11.4273L6.44838 10.834C6.24688 10.9458 6.03725 11.0662 5.81962 11.2037L6.19044 11.8056C6.4 11.6681 6.60156 11.5391 6.81112 11.4273ZM8.4635 15.2963L8.85038 15.9153C8.98738 15.7004 9.14863 15.5027 9.326 15.3049L8.96325 14.7203C8.78208 14.8973 8.61492 15.09 8.4635 15.2963ZM7.29475 18.0648L7.94763 18.6151C7.97988 18.2797 8.03625 17.9444 8.11687 17.6091L7.5365 17.1191C7.43175 17.4372 7.35919 17.7553 7.29469 18.0648H7.29475ZM3.76425 13.9808L3.19194 13.4478C2.98237 13.6627 2.78087 13.8777 2.59544 14.0926L3.21606 14.6601C3.38544 14.4279 3.57075 14.1958 3.76419 13.9809L3.76425 13.9808ZM1.33 17.8241L0.403 17.463C0.249875 17.8326 0.080625 18.2625 0 18.4947L0.926938 18.8557C1.03175 18.5634 1.201 18.1421 1.33 17.824V17.8241ZM7.17375 20.2487C7.18994 20.7043 7.23025 21.074 7.2705 21.332L8.23781 21.7017C8.16525 21.3663 8.09269 20.9881 8.04431 20.584L7.17375 20.2487Z" fill="#CC0000"/>
</g>
<defs>
<clipPath id="clip0_831_543">
<rect width="32" height="12" fill="white" transform="translate(0 10)"/>
</clipPath>
</defs>
</svg>
