<svg width="32" height="32" viewBox="0 0 32 32" fill="none" xmlns="http://www.w3.org/2000/svg">
<path d="M32 16.0026C32 14.1422 29.3453 12.3792 25.2752 11.2858C26.2144 7.6452 25.797 4.74873 23.9576 3.8214C23.5336 3.60388 23.0379 3.50084 22.4965 3.50084V4.77735C22.7966 4.77735 23.0379 4.82887 23.2401 4.92618C24.1272 5.37267 24.512 7.07278 24.212 9.25944C24.1402 9.79752 24.0228 10.3642 23.8793 10.9424C22.6009 10.6676 21.2051 10.4558 19.7375 10.3184C18.8569 9.25944 17.9437 8.29777 17.0241 7.4563C19.1504 5.72185 21.1464 4.77163 22.5031 4.77163V3.49512C20.7093 3.49512 18.3612 4.61707 15.987 6.56332C13.6127 4.62852 11.2646 3.51801 9.47085 3.51801V4.79452C10.821 4.79452 12.8235 5.73903 14.9499 7.46203C14.0367 8.30349 13.1235 9.25944 12.256 10.3184C10.7819 10.4558 9.38606 10.6676 8.10762 10.9481C7.9576 10.3757 7.84672 9.82042 7.76845 9.28806C7.46188 7.1014 7.8402 5.40129 8.72075 4.94908C8.91643 4.84604 9.17081 4.80025 9.47085 4.80025V3.52374C8.92295 3.52374 8.42723 3.62677 7.99674 3.8443C6.16388 4.77163 5.75296 7.66237 6.69874 11.2916C2.64166 12.3906 0 14.148 0 16.0026C0 17.863 2.65471 19.6261 6.72483 20.7194C5.78557 24.36 6.20302 27.2565 8.0424 28.1838C8.46637 28.4014 8.96209 28.5044 9.50999 28.5044C11.3037 28.5044 13.6519 27.3824 16.0261 25.4362C18.4003 27.371 20.7485 28.4815 22.5422 28.4815C23.0901 28.4815 23.5858 28.3785 24.0163 28.1609C25.8492 27.2336 26.2601 24.3429 25.3143 20.7137C29.3583 19.6203 32 17.8573 32 16.0026ZM23.5075 12.1845C23.2662 12.923 22.9662 13.6843 22.627 14.4456C22.3596 13.9877 22.0791 13.5297 21.7725 13.0718C21.4725 12.6139 21.1529 12.1674 20.8333 11.7323C21.7595 11.8525 22.6531 12.0014 23.5075 12.1845ZM20.5202 18.2809C20.0114 19.0536 19.4896 19.7863 18.9482 20.4675C17.9764 20.542 16.9914 20.582 16 20.582C15.0151 20.582 14.0302 20.542 13.0648 20.4733C12.5234 19.7921 11.9951 19.0651 11.4863 18.298C10.9906 17.5482 10.5406 16.7868 10.1296 16.0198C10.534 15.2527 10.9906 14.4857 11.4798 13.7358C11.9886 12.963 12.5104 12.2303 13.0518 11.5491C14.0236 11.4747 15.0086 11.4347 16 11.4347C16.9849 11.4347 17.9698 11.4747 18.9352 11.5434C19.4766 12.2246 20.0049 12.9516 20.5137 13.7186C21.0094 14.4685 21.4594 15.2298 21.8704 15.9969C21.4594 16.7639 21.0094 17.531 20.5202 18.2809ZM22.627 17.5367C22.9792 18.3038 23.2793 19.0708 23.5271 19.815C22.6726 19.9981 21.7725 20.1527 20.8398 20.2729C21.1594 19.8321 21.479 19.3799 21.779 18.9163C22.0791 18.4583 22.3596 17.9947 22.627 17.5367ZM16.013 23.6445C15.4064 23.095 14.7998 22.4825 14.1998 21.8127C14.7868 21.8356 15.3869 21.8528 15.9935 21.8528C16.6066 21.8528 17.2132 21.8414 17.8068 21.8127C17.2197 22.4825 16.6131 23.095 16.013 23.6445ZM11.1602 20.2729C10.234 20.1527 9.3404 20.0039 8.48594 19.8207C8.72727 19.0823 9.02731 18.3209 9.36649 17.5596C9.63392 18.0176 9.91439 18.4755 10.221 18.9334C10.5275 19.3914 10.8406 19.8379 11.1602 20.2729ZM15.9804 8.36073C16.587 8.91026 17.1936 9.52276 17.7937 10.1925C17.2067 10.1696 16.6066 10.1524 16 10.1524C15.3869 10.1524 14.7803 10.1639 14.1867 10.1925C14.7737 9.52276 15.3804 8.91026 15.9804 8.36073ZM11.1537 11.7323C10.8341 12.1731 10.5145 12.6253 10.2144 13.089C9.91439 13.5469 9.63392 14.0049 9.36649 14.4628C9.01427 13.6957 8.71423 12.9287 8.46637 12.1845C9.32083 12.0071 10.221 11.8525 11.1537 11.7323ZM5.25071 18.8991C2.9417 18.0347 1.44802 16.9013 1.44802 16.0026C1.44802 15.1039 2.9417 13.9648 5.25071 13.1061C5.81166 12.8943 6.42479 12.7054 7.05748 12.528C7.42927 13.6499 7.91847 14.8177 8.52507 16.0141C7.92499 17.2047 7.44232 18.3667 7.07705 19.483C6.43131 19.3055 5.81818 19.1109 5.25071 18.8991ZM8.75989 27.0791C7.87281 26.6326 7.48798 24.9325 7.78802 22.7458C7.85976 22.2077 7.97717 21.641 8.12067 21.0629C9.39911 21.3376 10.7949 21.5494 12.2625 21.6868C13.1431 22.7458 14.0563 23.7075 14.9759 24.5489C12.8496 26.2834 10.8536 27.2336 9.49694 27.2336C9.20342 27.2279 8.95557 27.1764 8.75989 27.0791ZM24.2316 22.7172C24.5381 24.9038 24.1598 26.6039 23.2792 27.0562C23.0836 27.1592 22.8292 27.205 22.5291 27.205C21.179 27.205 19.1765 26.2605 17.0501 24.5375C17.9633 23.696 18.8765 22.7401 19.744 21.6811C21.2181 21.5437 22.6139 21.3319 23.8924 21.0514C24.0424 21.6296 24.1598 22.1848 24.2316 22.7172ZM26.7428 18.8991C26.1818 19.1109 25.5687 19.2998 24.936 19.4772C24.5642 18.3553 24.075 17.1875 23.4684 15.9912C24.0685 14.8005 24.5512 13.6385 24.9164 12.5223C25.5622 12.6997 26.1753 12.8943 26.7493 13.1061C29.0583 13.9705 30.552 15.1039 30.552 16.0026C30.5455 16.9013 29.0518 18.0405 26.7428 18.8991Z" fill="#04BEF0"/>
<path d="M15.993 18.6187C17.6393 18.6187 18.9739 17.4475 18.9739 16.0027C18.9739 14.5579 17.6393 13.3867 15.993 13.3867C14.3468 13.3867 13.0122 14.5579 13.0122 16.0027C13.0122 17.4475 14.3468 18.6187 15.993 18.6187Z" fill="#04BEF0"/>
</svg>
