<svg width="32" height="32" viewBox="0 0 32 32" fill="none" xmlns="http://www.w3.org/2000/svg">
<g clip-path="url(#clip0_831_334)">
<mask id="mask0_831_334" style="mask-type:luminance" maskUnits="userSpaceOnUse" x="0" y="0" width="32" height="32">
<path d="M0 0H32V32H0V0Z" fill="white"/>
</mask>
<g mask="url(#mask0_831_334)">
<path d="M22.1732 22.0843C23.3532 21.9617 24.2492 20.9337 24.2092 19.7003C24.1892 19.1075 23.9408 18.5454 23.5158 18.1316C23.0908 17.7178 22.5223 17.4845 21.9292 17.4803H21.8465C20.5838 17.5203 19.6065 18.5897 19.6465 19.8643C19.6892 20.4817 19.9332 21.015 20.2998 21.3843C18.9145 24.1403 16.7972 26.1537 13.6198 27.839C11.4625 28.991 9.22251 29.4017 6.98384 29.1137C5.15051 28.867 3.72518 28.0443 2.82918 26.6883C1.52651 24.675 1.40518 22.495 2.50384 20.3163C3.27718 18.755 4.49984 17.603 5.27318 17.0283C5.06343 16.338 4.88678 15.6381 4.74384 14.931C-1.16149 19.2483 -0.549491 25.0857 1.23984 27.8403C2.58384 29.8963 5.31184 31.171 8.32651 31.171C9.14952 31.1766 9.97003 31.0798 10.7692 30.883C15.9825 29.8563 19.9318 26.731 22.1718 22.0857L22.1732 22.0843ZM29.3398 16.987C26.2452 13.3283 21.6838 11.3137 16.4718 11.3137H15.8198C15.6342 10.9435 15.3494 10.6323 14.9972 10.4145C14.645 10.1967 14.2392 10.0811 13.8252 10.0803H13.7425C12.4812 10.1217 11.5025 11.191 11.5438 12.4657C11.5838 13.699 12.6025 14.6843 13.8238 14.6843H13.9065C14.3366 14.6621 14.7518 14.5192 15.1045 14.2721C15.4573 14.025 15.7333 13.6836 15.9012 13.287H16.6345C19.7292 13.287 22.6612 14.191 25.3078 15.959C27.3438 17.3163 28.8105 19.083 29.6238 21.2217C30.3172 22.947 30.2772 24.6323 29.5438 26.0723C28.4025 28.251 26.4892 29.443 23.9638 29.443C22.3358 29.443 20.7878 28.9497 19.9732 28.579C19.387 29.1019 18.7756 29.5958 18.1412 30.059C19.8918 30.8817 21.6838 31.3337 23.3945 31.3337C27.3038 31.3337 30.1945 29.155 31.2945 26.9763C32.4745 24.5923 32.3932 20.4817 29.3398 16.987ZM8.65318 22.783C8.69318 24.0163 9.71184 25.003 10.9332 25.003H11.0145C12.2772 24.963 13.2545 23.8937 13.2145 22.619C13.1946 22.0262 12.9461 21.4641 12.5211 21.0503C12.0962 20.6365 11.5276 20.4031 10.9345 20.399H10.8518C10.755 20.3926 10.6579 20.4062 10.5665 20.439C8.89718 17.6443 8.20518 14.603 8.44918 11.3137C8.61184 8.84699 9.42651 6.70966 10.8518 4.94166C12.0332 3.42166 14.3132 2.68166 15.8612 2.64033C20.1772 2.55766 22.0092 7.98433 22.1318 10.163C22.6612 10.2857 23.5572 10.5737 24.1678 10.779C23.6785 4.12032 19.6078 0.666992 15.6972 0.666992C12.0332 0.666992 8.65318 3.33899 7.30918 7.28566C5.43584 12.547 6.65718 17.603 8.93851 21.591C8.73451 21.879 8.61184 22.331 8.65318 22.783Z" fill="#9747FF"/>
</g>
</g>
<defs>
<clipPath id="clip0_831_334">
<rect width="32" height="32" fill="white"/>
</clipPath>
</defs>
</svg>
