<svg width="24" height="24" viewBox="0 0 24 24" fill="#F7F4F3" xmlns="http://www.w3.org/2000/svg">
<path d="M20.7743 5.49346L21.0905 6.41897C21.4782 6.37251 21.8587 6.30402 22.2309 6.21456C21.8789 6.57294 21.4967 6.90182 21.088 7.19736L20.8694 7.35547L20.8815 7.625C20.8902 7.81829 20.895 8.01275 20.895 8.20452C20.895 14.1455 16.3765 20.9585 8.14 20.9585H8.13944C6.37308 20.9605 4.63345 20.5933 3.02936 19.889C4.911 19.7156 6.71024 19.0036 8.20674 17.8288L9.31176 16.9614L7.90717 16.9356C7.03936 16.9197 6.19825 16.6328 5.50159 16.1151C5.0208 15.7578 4.62542 15.303 4.33926 14.7838C4.82429 14.7917 5.30953 14.7316 5.78062 14.6042L5.74903 13.6314C4.80774 13.4412 3.96125 12.9312 3.35318 12.1879C2.90302 11.6377 2.60406 10.9846 2.47918 10.2929C2.96961 10.4636 3.48468 10.5596 4.0071 10.5763L5.75491 10.6319L4.30068 9.66072C3.73128 9.28046 3.26454 8.76553 2.94188 8.16163C2.61921 7.55772 2.4506 6.88351 2.451 6.19881V6.19852C2.451 5.69558 2.54065 5.21317 2.70465 4.76585C3.82267 5.99116 5.15503 7.00538 6.63833 7.75739C8.35506 8.62773 10.2356 9.12737 12.1579 9.22389L12.8216 9.25721L12.6698 8.6103C12.4605 7.71827 12.5515 6.78208 12.9288 5.9471C13.3061 5.11212 13.9485 4.42505 14.7562 3.99257C15.564 3.56009 16.492 3.40639 17.396 3.55534C18.3001 3.70429 19.1297 4.14755 19.7561 4.81631L19.9454 5.01852L20.2173 4.96516C20.8054 4.84972 21.3805 4.68081 21.9357 4.4611C21.6192 4.87166 21.2264 5.22295 20.7743 5.49346Z" stroke="#F7F4F3"/>
</svg>
