<svg width="32" height="32" viewBox="0 0 32 32" fill="none" xmlns="http://www.w3.org/2000/svg">
<path d="M22.6667 21.9601V9.85344L14.6667 15.9068M2.96002 12.2534C2.76651 12.0465 2.65665 11.7752 2.65172 11.4919C2.6468 11.2086 2.74715 10.9336 2.93336 10.7201L4.53336 9.2401C4.80002 9.0001 5.45336 8.89344 5.93336 9.2401L10.4934 12.7201L21.0667 3.05344C21.4934 2.62677 22.2267 2.45344 23.0667 2.89344L28.4 5.4401C28.88 5.7201 29.3334 6.1601 29.3334 6.97344V24.9734C29.3334 25.5068 28.9467 26.0801 28.5334 26.3068L22.6667 29.1068C22.24 29.2801 21.44 29.1201 21.16 28.8401L10.4667 19.1068L5.93336 22.5734C5.42669 22.9201 4.80002 22.8268 4.53336 22.5734L2.93336 21.1068C2.50669 20.6668 2.56002 19.9468 3.00002 19.5068L7.00002 15.9068" fill="#699BF7"/>
</svg>
