<svg width="32" height="32" viewBox="0 0 32 32" fill="none" xmlns="http://www.w3.org/2000/svg">
<g clip-path="url(#clip0_831_327)">
<path d="M16.0278 2.25L28.1804 9.125V22.875L16.0278 29.75L3.875 22.875V9.125L16.0278 2.25Z" fill="white"/>
<path d="M26.0104 22.4007L16.4289 27.8204V23.5992L22.3987 20.3153L26.0104 22.4007ZM26.6658 21.8072V10.4726L23.1596 12.4961V19.7813L26.6658 21.8072ZM6.00645 22.4007L15.5879 27.8204V23.5992L9.61807 20.3153L6.00645 22.4007ZM5.35107 21.8072V10.4726L8.85732 12.4961V19.7813L5.35107 21.8072ZM5.7612 9.73919L15.5879 4.17969V8.26106L9.2927 11.7238L9.24457 11.7513L5.7612 9.73919ZM26.2556 9.73919L16.4289 4.17969V8.26106L22.7242 11.7238L22.7723 11.7513L26.2556 9.73919Z" fill="#8ED6FB"/>
<path d="M15.5879 22.6394L9.69824 19.4012V12.9846L15.5879 16.3855V22.6394ZM16.4289 22.6394L22.3185 19.4012V12.9846L16.4289 16.3855V22.6394ZM10.097 12.2421L16.0095 8.99023L21.922 12.2421L16.0095 15.6567L10.097 12.2421Z" fill="#1C78C0"/>
</g>
<defs>
<clipPath id="clip0_831_327">
<rect width="32" height="32" fill="white"/>
</clipPath>
</defs>
</svg>
